<svg width="24" height="24" fill="none" xmlns="http://www.w3.org/2000/svg"><path d="M2 19h2a4 4 0 0 1 8 0h2a6 6 0 0 0-12 0zM4 8a4 4 0 1 1 8 0 4 4 0 0 1-8 0zm2.002-.029A2 2 0 0 0 10 8.09V8a2 2 0 0 0-3.998-.029zM18.339 15a22.972 22.972 0 0 0-.692-.583l-.047-.038-.006-.004C16.438 13.432 15 12.258 15 10.799A1.8 1.8 0 0 1 16.839 9a2.008 2.008 0 0 1 1.5.667 2.009 2.009 0 0 1 1.5-.667 1.8 1.8 0 0 1 1.835 1.8c0 1.465-1.45 2.647-2.615 3.598l-.003.002-.057.047-.018.015c-.23.189-.448.367-.643.54l.001-.003z" fill="#2E3A59"/></svg>