<svg xmlns="http://www.w3.org/2000/svg" xmlns:xlink="http://www.w3.org/1999/xlink" width="158" height="159"><defs><path id="c" d="M48 20H0a10 10 0 0010-10 10 10 0 0110-9h29l-1 19z"/><path id="e" d="M48 20H0a10 10 0 0010-10 10 10 0 0110-9h29l-1 19z"/><circle id="g" cx="15.3" cy="15.3" r="15.3"/><rect id="a" width="158" height="158" x="0" y="0" rx="79"/></defs><g fill="none" fill-rule="evenodd"><g><mask id="b" fill="#fff"><use xlink:href="#a"/></mask><use fill="#BADFFA" xlink:href="#a"/><g mask="url(#b)"><path fill="#075F9F" d="M34 76c0-2-4-6-11-1l-4 3-7-1c-7-1-15 7-7 12l4 2 1 1h1c7 3 12 6 9 16l-1 4h1l8 3-11 2c-2 10 2 17 9 24 9 7 16 10 22 12h1l2 1h1l2 1 25 3-1-1c-4-3-7-6-4-11 4-11 1-21-10-22-13-2-11-24-10-28 1-5-3-12-6-13-7-4-10 1-14-7z"/><path fill="#2078B8" fill-rule="nonzero" d="M40 110c1 7 4 11 9 17l2 2c5 5 7 9 7 14 1 4 0 8-2 12h-2l3-12c-1-5-2-8-7-12l-2-3c-6-6-8-10-9-18-2-16-10-24-23-24a1 1 0 010-1c14 0 22 8 24 25z"/><path fill="#267FBF" d="M39 88a2 2 0 103 0 2 2 0 00-3 0m-16 35a2 2 0 104 0 2 2 0 00-4 0" opacity=".8"/><path fill="#FAC47C" d="M96 45H36c-2 0-4-2-4-4V29c0-2 2-3 4-3h60v19z"/><path fill="#FFB554" d="M96 45H40c-2 0-4-2-4-4V30c0-3 2-4 4-4h56c2 0 4 1 4 4v11c0 2-2 4-4 4z"/><path fill="#E0843F" d="M39 31h58v8H39z"/><path fill="#FFFEFB" d="M98 35H40c5 0 10 4 10 10v44c0 5 4 10 10 10h13s4-2 4-5 3 0 4-1c2-2 27 1 29 1l-2-15V45c0-6-4-10-10-10z"/><path fill="#758A9A" d="M98 57H60a2 2 0 010-5h38a2 2 0 010 5zm0 11H60a2 2 0 010-5h38a2 2 0 010 5zm0 11H60a2 2 0 010-5h38a2 2 0 010 5zm0 11H60a2 2 0 010-4h38a2 2 0 010 4z"/><g transform="translate(59 79)"><mask id="d" fill="#fff"><use xlink:href="#c"/></mask><use fill="#D9D6D0" xlink:href="#c"/><path fill="#BEBEBE" fill-rule="nonzero" d="M20 0l4 4c2 3 2 8 1 16h20V0H20z" mask="url(#d)" opacity=".6"/></g><path fill="#FFFEFB" d="M148 89v14a61 61 0 01-58 41h-1V89a10 10 0 00-9-10h58a10 10 0 0110 10z"/><g><path fill="#758A9A" d="M138 99H99l-2-3 2-2h39c2 0 3 1 3 2l-3 3zm0 11H99l-2-3 2-2h39l2 2-2 3zm2 6v1l-2 4H99l-2-3 2-2h41zm-8 11l-5 5H99l-2-3 2-2h33zm-15 11l-15 5h-3a2 2 0 010-5h18z"/></g><g><path fill="#FAC47C" d="M96 45H36c-2 0-4-2-4-4V29c0-2 2-3 4-3h60v19z"/><path fill="#FFB554" d="M96 45H40c-2 0-4-2-4-4V30c0-3 2-4 4-4h56c2 0 4 1 4 4v11c0 2-2 4-4 4z"/><path fill="#E0843F" d="M39 31h58v8H39z"/><path fill="#FFFEFB" d="M98 35H40c5 0 10 4 10 10v44c0 5 4 10 10 10h13s4-2 4-5 3 0 4-1c2-2 27 1 29 1l-2-15V45c0-6-4-10-10-10z"/><path d="M98 57H60a2 2 0 010-5h38a2 2 0 010 5zm0 11H60a2 2 0 010-5h38a2 2 0 010 5zm0 11H60a2 2 0 010-5h38a2 2 0 010 5zm0 11H60a2 2 0 010-4h38a2 2 0 010 4z" fill="#758A9A"/><g transform="translate(59 79)"><mask id="f" fill="#fff"><use xlink:href="#e"/></mask><use fill="#D9D6D0" xlink:href="#e"/><path fill="#BEBEBE" fill-rule="nonzero" d="M20 0l4 4c2 3 2 8 1 16h20V0H20z" mask="url(#f)" opacity=".6"/></g><path fill="#FFFEFB" d="M148 89v70H89V89a10 10 0 00-9-10h58a10 10 0 0110 10z"/><path d="M138 99H99l-2-3 2-2h39c2 0 3 1 3 2l-3 3zm0 11H99c-1 0-2-1-2-3l2-2h39l2 2c0 2-1 3-2 3zm0 11H99c-1 0-2-1-2-3l2-2h39c2 0 3 1 3 2 0 2-1 3-3 3zm0 11H99c-1 0-2-1-2-3l2-2h39l2 2c0 2-1 3-2 3zm0 11H99l-2-2c0-2 1-3 2-3h39c1 0 2 1 2 3l-2 2z" fill="#758A9A"/></g></g></g><g transform="translate(126 32)"><mask id="h" fill="#fff"><use xlink:href="#g"/></mask><use fill="#F8DAAB" fill-rule="nonzero" xlink:href="#g"/><circle cx="17.9" cy="13.6" fill="#FAEDD9" fill-rule="nonzero" mask="url(#h)" r="15.3"/><path fill="#FFAE43" fill-rule="nonzero" d="M11 24h-1v-1l4-7h-4l5-9h5l-4 6h4l-9 11" mask="url(#h)"/></g></g></svg>