<svg data-name="Layer 1" xmlns="http://www.w3.org/2000/svg" width="694.082" height="576.158"><g data-name="Group 73"><path data-name="Path 1083" d="M331.132 136.916h3.166V50.193A50.193 50.193 0 0 1 384.491 0h183.736a50.193 50.193 0 0 1 50.193 50.193v475.771a50.193 50.193 0 0 1-50.193 50.193H384.491a50.193 50.193 0 0 1-50.193-50.193V198.647h-3.166z" fill="#3f3d56"/><path data-name="Path 1084" d="M382.466 13.059h23.984a17.808 17.808 0 0 0 16.488 24.534h105.259a17.808 17.808 0 0 0 16.488-24.534h22.4a37.484 37.484 0 0 1 37.485 37.483v475.074a37.484 37.484 0 0 1-37.484 37.484h-184.62a37.484 37.484 0 0 1-37.484-37.484V50.544a37.484 37.484 0 0 1 37.484-37.484z" fill="#fff"/><circle data-name="Ellipse 206" cx="474.776" cy="396.222" r="42.565" fill="#ccc"/><circle data-name="Ellipse 221" cx="474.776" cy="396.221" r="40.444" fill="#fff"/><path data-name="Path 1087" d="m468.023 413.911-12.739-16.381 7.408-5.762 6.032 7.756 20.379-21.512 6.815 6.456z" fill="#6c63ff"/><path data-name="Path 1121" d="m372.23 478.999 24.611-11.485v6.563h57.426v9.844h-57.426v6.563z" fill="#6c63ff"/><path data-name="Path 1125" d="m571.607 478.999-24.611-11.485v6.563H489.57v9.845h57.426v6.563z" fill="#6c63ff"/><path data-name="Rectangle 126" fill="#e6e6e6" d="M374.793 88.937H574.17v209.396H374.793z"/><g data-name="Group 71"><path data-name="Path 973" d="m447.331 265.945-15.12 23.519h10.919z" fill="#e6e6e6"/><circle data-name="Ellipse 182" cx="464.97" cy="135.752" r="21.839" fill="#feb8b8"/><path data-name="Path 976" d="M489.329 159.271s-10.08 3.36-15.119 9.24-16.8 6.72-16.8 6.72-10.4 5.854-14.279 15.959c-4.139 10.769-1.733 25.932 0 29.4 3.36 6.72 3.36 23.519 3.36 23.519l-4.2 38.638s-15.119 14.279-3.36 15.959 32.758-.84 45.358 0 26.879 2.52 22.679-5.88-9.24-14.279-4.2-31.078c3.944-13.146 3.773-62.3 3.512-83.052a16.71 16.71 0 0 0-8.115-14.121z" fill="#3f3d56"/><path data-name="Path 977" d="M456.57 287.784s-3.821 8.414-4.2 13.439c-2.94 39.058 18.479 0 18.479 0v-6.72z" fill="#feb8b8"/><path data-name="Path 980" d="m730.108 347.65 2.52 51.237-24.417 49.454-4.142-1.576 25.2-46.2z" transform="translate(-252.959 -161.921)" opacity=".1" style="isolation:isolate"/><path data-name="Path 981" d="m496.888 170.19 6.3-1.26s18.9 13.859 13.019 41.578-31.918 69.717-31.918 69.717-5.88 7.56-7.56 9.24-5.04 0-3.36 2.52-2.52 4.2-2.52 4.2-18.479 0-16.8-6.72 30.239-54.6 30.239-54.6l-4.2-44.518s-3.359-21.837 16.8-20.157z" fill="#3f3d56"/><path data-name="Path 982" d="M757.827 409.807v-5.88l-28.555 47.038z" transform="translate(-252.959 -161.921)" opacity=".1" style="isolation:isolate"/><path data-name="Path 983" d="m449.476 115.516-3.61-1.445s7.549-8.311 18.052-7.588l-2.954-3.252s7.221-2.891 13.785 4.7c3.451 3.989 7.443 8.678 9.932 13.96h3.866l-1.614 3.553 5.648 3.553-5.8-.638a19.661 19.661 0 0 1-.548 9.2l.155 2.808s-6.72-10.4-6.72-11.842v3.613s-3.61-3.252-3.61-5.42l-1.969 2.529-.985-3.975-12.144 3.975 1.969-3.252-7.549 1.084 2.954-3.975s-8.534 4.7-8.862 8.672-4.596 9.04-4.596 9.04l-1.969-3.613s-2.952-16.263 6.569-21.687z" fill="#2f2e41"/></g><g data-name="Group 72"><path data-name="Path 1133" d="M191.517 214.693c-2.768-8.823-9.064-16.914-17.77-19.9s-23.895-.195-28 8.084c-5.917 11.932-3.259 26.543-.121 39.5 1.636-.087 3.287-.155 4.943-.217l2.343-7.808v7.731c12.925-.4 26.382-.149 39.846.109 1.206-9.17 1.528-18.677-1.241-27.499z" fill="#2f2e41"/><path data-name="Path 1134" d="m72.748 550.873 10.874 4.557 22.75-39.77-16.048-6.726z" fill="#a0616a"/><path data-name="Path 1135" d="m65.558 560.251 35.059 14.693.186-.443a14.8 14.8 0 0 0-7.927-19.365l-21.413-8.974z" fill="#2f2e41"/><path data-name="Path 1136" d="M232.199 363.008a8.157 8.157 0 0 0-3.309-12.061l-23.37-70.52-15.651 8.348 27.893 66.692a8.2 8.2 0 0 0 14.437 7.54z" fill="#a0616a"/><path data-name="Path 1137" d="M203.385 563.516h11.789l5.608-45.473h-17.4z" fill="#a0616a"/><path data-name="Path 1138" d="M200.379 574.944h38.013v-.481a14.8 14.8 0 0 0-14.795-14.8h-23.219z" fill="#2f2e41"/><path data-name="Path 1139" d="m156.118 304.875-2.672 6.945.534 6.945 51.289-6.41-1.6-5.877-5.876-6.945z" fill="#a0616a"/><circle data-name="Ellipse 220" cx="172.647" cy="223.702" r="18.672" fill="#a0616a"/><path data-name="Path 1140" d="m153.162 312.319 50.858-5.41 2.2-7.206c.685-.939 7.14-10.087 5.708-19.233a15.929 15.929 0 0 0-6.881-10.666l-12.361-14.478-10.878-6.475-21.445-2.144-.074.016-19.253 4.357.234 35.292z" fill="#e6e6e6"/><path data-name="Path 1141" d="m202.74 316.059 14.249-1.692-.037-.448c-.131-1.573-3.247-38.629-6.439-47.14-3.26-8.694-17.382-11.4-17.981-11.513l-.173-.032-3.138 1.883 8.66 27.064z" fill="#e6e6e6"/><path data-name="Path 1142" d="M152.596 318.656v11.732s-13.734 17.846-6.334 31.579c0 0-15.846 29.578-16.9 40.142l-14.8 48.594s-36.973 36.973-33.8 63.382l-2.113 8.451 24.3 10.564 5.282-7.395 41.2-70.777 34.86-64.439 6.338 76.059s-4.225 59.157 7.395 65.5l1.056 9.507h24.658v-9.039s9.146-32.161 3.864-56.458l2.113-102.468s-9.507-43.311-21.127-50.706l-4.226-10.568z" fill="#2f2e41"/><path data-name="Path 1143" d="M171.208 340.632a8.399 8.399 0 0 0-1.264.391l-32.6-22.438.746-9.585-14.318-3.016-2.969 16.84a6.384 6.384 0 0 0 3.465 6.835l40.379 19.914a8.376 8.376 0 1 0 6.561-8.939z" fill="#a0616a"/><path data-name="Path 1144" d="m137.654 319.822 6.635-44.262 5.446-22.865-8.137-1.7c-.221-.082-6.847-2.322-12.2 1.284-3.85 2.6-5.983 7.522-6.339 14.641l-2.154 50.648z" fill="#e6e6e6"/><path data-name="Path 1145" d="M185.477 199.387a23.453 23.453 0 0 0-35.657 20.468c10.437.48 21.4.6 32.519.627l2.627-6.431 1.549 6.435q5.081 0 10.182-.013a23.947 23.947 0 0 0-11.22-21.086z" fill="#2f2e41"/></g><path data-name="Path 1146" d="M1.812 576.158H692.27c1 0 1.812-.448 1.812-1s-.812-1-1.812-1H1.812c-1 0-1.812.448-1.812 1s.811 1 1.812 1z" fill="#cbcbcb"/></g></svg>