<svg data-name="Layer 1" xmlns="http://www.w3.org/2000/svg" width="792.092" height="584.595"><path d="m111.768 296.438-1.597-1.203c8.724-11.581 19.581-25.994 21.254-42.253 1.648-16.028-6.036-33.248-20.055-44.942-11.93-9.952-28.354-16.241-47.496-18.189-3.776-.384-7.658-.609-11.412-.827-9.075-.526-18.458-1.07-27.285-3.896C13.021 181.234.523 171.083.007 157.179a23.856 23.856 0 0 1 12.776-21.763l.934 1.769a21.86 21.86 0 0 0-11.712 19.934c.48 12.92 12.291 22.424 23.783 26.104 8.584 2.75 17.84 3.286 26.79 3.805 3.775.219 7.68.445 11.498.834 19.54 1.988 36.338 8.434 48.575 18.642 14.523 12.114 22.479 30.002 20.763 46.683-1.73 16.813-12.772 31.473-21.646 43.251z" fill="#f1f1f1"/><ellipse cx="228.748" cy="289.697" rx="17.5" ry="8.5" transform="rotate(-24.605 -234.62 677.628)" fill="#f1f1f1"/><ellipse cx="264.793" cy="334.783" rx="17.5" ry="8.5" transform="rotate(-24.605 -198.575 722.714)" fill="#f1f1f1"/><ellipse cx="239.446" cy="356.289" rx="17.5" ry="8.5" transform="rotate(-24.605 -223.922 744.22)" fill="#f1f1f1"/><ellipse cx="304.474" cy="378.204" rx="17.5" ry="8.5" transform="rotate(-24.605 -158.893 766.135)" fill="#f1f1f1"/><ellipse cx="336.296" cy="363.631" rx="17.5" ry="8.5" transform="rotate(-24.605 -127.07 751.563)" fill="#f1f1f1"/><path d="m737.921 584.595.872-1.8c-13.05-6.32-29.29-14.185-38.201-27.887-8.785-13.507-9.811-32.336-2.678-49.14 6.07-14.301 17.81-27.396 33.952-37.869 3.183-2.065 6.534-4.038 9.775-5.946 7.833-4.611 15.933-9.38 22.495-15.925 9.038-9.014 15.521-23.752 9.633-36.358a23.856 23.856 0 0 0-21.303-13.528l-.024 2a21.86 21.86 0 0 1 19.521 12.388c5.472 11.714-.696 25.561-9.24 34.083-6.382 6.365-14.37 11.068-22.097 15.616-3.259 1.92-6.629 3.903-9.85 5.993-16.476 10.69-28.477 24.095-34.703 38.764-7.39 17.409-6.3 36.956 2.842 51.013 9.216 14.168 25.734 22.169 39.006 28.596z" fill="#f1f1f1"/><ellipse cx="943.484" cy="556.45" rx="17.5" ry="8.5" transform="rotate(-2.562 -2684.032 5029.24)" fill="#f1f1f1"/><ellipse cx="932.002" cy="613.02" rx="17.5" ry="8.5" transform="rotate(-2.562 -2695.514 5085.81)" fill="#f1f1f1"/><ellipse cx="964.372" cy="620.58" rx="17.5" ry="8.5" transform="rotate(-2.562 -2663.144 5093.37)" fill="#f1f1f1"/><ellipse cx="916.524" cy="669.769" rx="17.5" ry="8.5" transform="rotate(-2.562 -2710.993 5142.559)" fill="#f1f1f1"/><ellipse cx="881.559" cy="671.333" rx="17.5" ry="8.5" transform="rotate(-2.562 -2745.958 5144.123)" fill="#f1f1f1"/><path d="M459.927 265.124a10.526 10.526 0 0 1 1.059 1.276l49.578-1.213 5.784-10.569 17.091 6.644-8.42 19.705a8 8 0 0 1-8.316 4.799l-56.015-6.767a10.497 10.497 0 1 1-.76-13.875zm161.618 301.095-16.301-.001-7.755-62.878 24.059.001-.003 62.878z" fill="#ffb7b7"/><path d="m625.703 582.02-52.564-.001v-.665a20.46 20.46 0 0 1 20.46-20.459l32.105.001z" fill="#2f2e41"/><path fill="#ffb7b7" d="m473.52 565.856-14.991-6.405 17.569-60.869 22.125 9.452-24.703 57.822z"/><path d="M471.136 582.02 422.8 561.37l.261-.61a20.46 20.46 0 0 1 26.851-10.778h.002l29.522 12.613z" fill="#2f2e41"/><path fill="#ffb7b7" d="m542.308 278.746-1.179 19.102 34.458 3.687 36.055 3.859-10.612-29.007-58.722 2.359z"/><path d="m540.525 285.826-13.867-81.052 23.202-7.604 6.815-9.345 33.162 1.962 4.868 10.906 17.683 8.355-2.717 50.469-4.77 23.474-.587-.305c-23.906-12.379-62.826 2.76-63.216 2.914z" fill="#2f2e41"/><path d="m531.619 273.086-23.6-9.442.1-.42c.102-.424 10.146-42.398 11.48-49.143 1.39-7.028 6.465-8.97 6.68-9.05l.158-.058 9.34 2.843 4.102 32.23zm-45.957 281.719-31.416-6.444 50.211-138.55 17.185-47.257s10.9-37.89 15.824-52.554l2.971-19.675 70.35 7.787s19.648 28.855 13.679 75.888l2.7 176.778-31.416 1.61L569.436 374.1l-46.183 97.736s-14.557 41.708-24.971 50.748z" fill="#2f2e41"/><path d="M582.575 304.674a10.527 10.527 0 0 1 1.655.09l32.819-37.18-3.818-11.427 16.493-8.015 8.724 19.572a8 8 0 0 1-2.135 9.36l-43.047 36.475a10.497 10.497 0 1 1-10.691-8.875z" fill="#ffb7b7"/><path d="M614.43 271.203 600.738 239l5.34-22.432 5.753-7.268a3.314 3.314 0 0 1 2.662.025c2.122.854 3.929 3.47 5.37 7.779l12.831 36.546zm-71.03-95.311v-24.278a32.533 32.533 0 1 1 65.066 0v24.278a4.375 4.375 0 0 1-4.37 4.37H547.77a4.375 4.375 0 0 1-4.37-4.37z" fill="#2f2e41"/><circle cx="569.248" cy="155.845" r="23.852" fill="#ffb7b7"/><path d="M535.704 153.556a25.764 25.764 0 0 1 25.735-25.735h4.855a25.764 25.764 0 0 1 25.735 25.735v.486h-10.262l-3.5-9.8-.7 9.8h-5.303l-1.765-4.945-.354 4.945h-34.441z" fill="#2f2e41"/><path d="M566.9 182.992a4.305 4.305 0 0 1-.342-4.571c5.146-9.787 12.35-27.871 2.787-39.024l-.687-.802h27.762v41.681l-25.22 4.45a4.464 4.464 0 0 1-.773.068 4.353 4.353 0 0 1-3.527-1.802z" fill="#2f2e41"/><path d="M428.888 484.413H131.523a26.614 26.614 0 0 1-26.584-26.584V26.584A26.614 26.614 0 0 1 131.523 0h297.365a26.614 26.614 0 0 1 26.584 26.584V457.83a26.614 26.614 0 0 1-26.584 26.584z" fill="#3f3d56"/><path d="M429.411 467.452H131a8.204 8.204 0 0 1-8.195-8.195v-434.1A8.204 8.204 0 0 1 131 16.96h298.411a8.204 8.204 0 0 1 8.195 8.195v434.101a8.204 8.204 0 0 1-8.195 8.195z" fill="#fff"/><circle cx="279.075" cy="8.141" r="2.261" fill="#fff"/><path d="M346.466 292a51 51 0 0 1-50.937-48.5c-.04.829-.063 1.662-.063 2.5a51 51 0 1 0 102 0c0-.838-.024-1.671-.063-2.5a51 51 0 0 1-50.937 48.5zm-133-120a51 51 0 0 1-50.937-48.5c-.04.829-.063 1.662-.063 2.5a51 51 0 0 0 102 0c0-.838-.024-1.671-.063-2.5a51 51 0 0 1-50.937 48.5zm3 240a51 51 0 0 1-50.937-48.5c-.04.829-.063 1.662-.063 2.5a51 51 0 0 0 102 0c0-.838-.024-1.671-.063-2.5a51 51 0 0 1-50.937 48.5z" fill="#cbcbcb"/><path d="M346.482 292.755a51.548 51.548 0 1 1 51.548-51.548 51.548 51.548 0 0 1-51.548 51.548zm0-100.642a49.094 49.094 0 1 0 49.094 49.094 49.094 49.094 0 0 0-49.094-49.094z" fill="#3f3d56"/><path d="m375.938 227.09 6.137-1.228s-5.155 5.769-6.137 6.137a24.697 24.697 0 0 0 0 3.682c-11.782 50.566-55.23 28.229-55.23 28.229 15.833.368 17.183-6.137 17.183-6.137-9.205-1.35-11.046-7.364-11.046-7.364a3.792 3.792 0 0 0 4.909-1.227c-9.942-2.578-8.591-12.274-8.591-12.274a12.765 12.765 0 0 0 6.014 2.332c-1.105-1.35-10.433-12.519-4.787-18.287 0 0 6.873 12.273 24.915 13.378l1.227-.246a9.635 9.635 0 0 1-.245-2.7 12.887 12.887 0 0 1 12.887-12.887c8.591 0 10.432 4.91 10.432 4.91l6.137-3.683c-.123 0-.736 6.137-3.805 7.364z" fill="#6c63ff"/><path d="M213.93 173.09a51.548 51.548 0 1 1 51.547-51.55 51.548 51.548 0 0 1-51.548 51.55zm0-100.643a49.094 49.094 0 1 0 49.093 49.094 49.094 49.094 0 0 0-49.094-49.094z" fill="#3f3d56"/><path d="M227.969 96.04a12.998 12.998 0 0 1 12.959 12.959v25.915a12.998 12.998 0 0 1-12.959 12.959h-25.915a12.998 12.998 0 0 1-12.959-12.96V109a12.998 12.998 0 0 1 12.959-12.959h25.915m0-5.183h-25.915A18.195 18.195 0 0 0 183.912 109v25.915a18.195 18.195 0 0 0 18.142 18.142h25.915a18.195 18.195 0 0 0 18.142-18.142V109a18.195 18.195 0 0 0-18.142-18.142z" fill="#6c63ff"/><path d="M231.856 108.999a3.88 3.88 0 1 1 .017 0h-.017zm-16.845 2.591a10.367 10.367 0 1 1-10.366 10.366 10.367 10.367 0 0 1 10.366-10.367m0-5.182a15.55 15.55 0 1 0 15.55 15.55 15.55 15.55 0 0 0-15.55-15.55z" fill="#6c63ff"/><path d="M216.384 412.42a51.548 51.548 0 1 1 51.548-51.548 51.548 51.548 0 0 1-51.548 51.549zm0-100.641a49.094 49.094 0 1 0 49.093 49.093 49.094 49.094 0 0 0-49.093-49.093z" fill="#3f3d56"/><path d="M250.082 361.075a33.698 33.698 0 1 0-38.964 33.29V370.82h-8.558v-9.744h8.558v-7.426c0-8.444 5.033-13.112 12.729-13.112a51.785 51.785 0 0 1 7.544.659v8.294h-4.25c-4.185 0-5.493 2.596-5.493 5.265v6.321h9.345l-1.493 9.744h-7.852v23.548a33.707 33.707 0 0 0 28.434-33.293z" fill="#6c63ff" fill-rule="evenodd"/><path d="M791.092 584h-381a1 1 0 0 1 0-2h381a1 1 0 0 1 0 2z" fill="#cbcbcb"/></svg>